<svg width="18" height="18" viewBox="0 0 18 18" fill="none" xmlns="http://www.w3.org/2000/svg">
<g opacity="0.5">
<path fill-rule="evenodd" clip-rule="evenodd" d="M5.69565 9.00012C5.69565 7.17518 7.17505 5.69577 8.99999 5.69577C10.8249 5.69577 12.3043 7.17518 12.3043 9.00012C12.3043 10.8251 10.8249 12.3045 8.99999 12.3045C7.17505 12.3045 5.69565 10.8251 5.69565 9.00012ZM8.99999 3.26099C5.83036 3.26099 3.26086 5.83048 3.26086 9.00012C3.26086 12.1698 5.83036 14.7392 8.99999 14.7392C12.1696 14.7392 14.7391 12.1698 14.7391 9.00012C14.7391 5.83048 12.1696 3.26099 8.99999 3.26099Z" fill="white"/>
<path d="M10.7391 9.00012C10.7391 9.96061 9.96049 10.7392 8.99999 10.7392C8.0395 10.7392 7.26086 9.96061 7.26086 9.00012C7.26086 8.03962 8.0395 7.26099 8.99999 7.26099C9.96049 7.26099 10.7391 8.03962 10.7391 9.00012Z" fill="white"/>
<path d="M11.7826 1V3.08696V5.17391H6.21741C6.21741 5.17391 6.44929 4.26087 8.07248 2.73913C9.69567 1.21739 11.7826 1 11.7826 1Z" fill="white"/>
<path d="M16.6244 5.31069L15.1487 6.78639L13.673 8.26209L9.73781 4.32689C9.73781 4.32689 10.5474 3.84524 12.7712 3.91697C14.995 3.98871 16.6244 5.31069 16.6244 5.31069Z" fill="white"/>
<path d="M17 11.7825L14.913 11.7825L12.8261 11.7825L12.8261 6.21729C12.8261 6.21729 13.7391 6.44917 15.2609 8.07236C16.7826 9.69555 17 11.7825 17 11.7825Z" fill="white"/>
<path d="M12.6893 16.6244L11.2136 15.1487L9.73791 13.673L13.6731 9.73781C13.6731 9.73781 14.1548 10.5474 14.083 12.7712C14.0113 14.995 12.6893 16.6244 12.6893 16.6244Z" fill="white"/>
<path d="M6.21738 17L6.21738 14.913L6.21738 12.8261L11.7826 12.8261C11.7826 12.8261 11.5507 13.7391 9.92752 15.2609C8.30433 16.7826 6.21738 17 6.21738 17Z" fill="white"/>
<path d="M1.37559 12.6893L2.85129 11.2136L4.32699 9.73791L8.26219 13.6731C8.26219 13.6731 7.45261 14.1548 5.22881 14.083C3.00501 14.0113 1.37559 12.6893 1.37559 12.6893Z" fill="white"/>
<path d="M1 6.2175L3.08696 6.2175L5.17391 6.2175L5.17391 11.7827C5.17391 11.7827 4.26087 11.5508 2.73913 9.92764C1.21739 8.30445 1 6.2175 1 6.2175Z" fill="white"/>
<path d="M5.31069 1.37559L6.78639 2.85129L8.26209 4.32699L4.32689 8.26219C4.32689 8.26219 3.84524 7.45261 3.91697 5.22881C3.98871 3.00501 5.31069 1.37559 5.31069 1.37559Z" fill="white"/>
</g>
</svg>
