<svg width="14" height="14" viewBox="0 0 14 14" fill="none" xmlns="http://www.w3.org/2000/svg">
<path d="M10.5455 0.181818L14 0L13.8182 3.45454C13.8182 3.45454 11.3524 5.31893 8.8766 7.28365C9.50995 8.0641 10.0932 8.75818 10.5551 9.26498L12.3352 7.45455L12.8715 9.45455L11.8126 10.5316C13.1486 11.8054 13.7654 12.1818 13.7654 12.1818L13.4078 13.6364L11.9777 14C11.9777 14 11.6076 13.3727 10.3551 12.0139L9.29614 13.0909L7.32969 12.5455L9.1098 10.735C8.56418 10.2206 7.79779 9.5582 6.9409 8.84299C6.06939 9.55819 5.28994 10.2206 4.73502 10.735L6.54549 12.5454L4.54549 13.0909L3.46843 12.0138C2.19457 13.3727 1.81818 14 1.81818 14L0.363636 13.6363L0 12.1818C0 12.1818 0.627308 11.8054 1.98614 10.5315L0.90913 9.45453L1.45458 7.45454L3.26501 9.26496C3.74116 8.75131 4.34409 8.04527 4.99835 7.25192C2.5774 5.29891 0.179 3.45455 0.179 3.45455L0.00023126 0L3.39683 0.181818C3.39683 0.181818 5.0926 2.46288 6.9409 4.83991C8.82074 2.46288 10.5455 0.181818 10.5455 0.181818Z" fill="white"/>
</svg>
