<svg width="18" height="18" viewBox="0 0 18 18" fill="none" xmlns="http://www.w3.org/2000/svg">
<path opacity="0.5" fill-rule="evenodd" clip-rule="evenodd" d="M1.60721 9.35714L8.31254 16.0625L7.14063 17.2344L0.435302 10.529L1.60721 9.35714ZM12.7783 2.36046C12.7783 2.36046 7.47439 -0.271307 4.50446 2.67917C2.36011 4.80947 2.5242 8.15109 2.5242 8.15109L7.18245 12.8093C7.18245 12.8093 7.17785 12.8002 7.16922 12.7824L9.43036 15.0436C9.43036 15.0436 12.7663 15.2074 14.893 13.0667C17.8384 10.1018 15.2111 4.80693 15.2111 4.80693C15.2111 4.80693 15.9668 8.0043 13.0001 10.5C11.1097 12.0903 8.29026 11.6099 6.49325 11.052C5.91499 9.22952 5.41215 6.38749 7.00006 4.49993C9.50007 1.52817 12.7783 2.36046 12.7783 2.36046Z" fill="white"/>
</svg>
