<svg width="18" height="18" viewBox="0 0 18 18" fill="none" xmlns="http://www.w3.org/2000/svg">
<path d="M0 1.28571C0 0.575634 0.575634 0 1.28571 0H3.85714C4.56722 0 5.14286 0.575634 5.14286 1.28571V3.85714C5.14286 4.56722 4.56722 5.14286 3.85714 5.14286H1.28571C0.575634 5.14286 0 4.56722 0 3.85714V1.28571Z" fill="white"/>
<path d="M0 7.71429C0 7.00421 0.575634 6.42857 1.28571 6.42857H3.85714C4.56722 6.42857 5.14286 7.00421 5.14286 7.71429V10.2857C5.14286 10.9958 4.56722 11.5714 3.85714 11.5714H1.28571C0.575634 11.5714 0 10.9958 0 10.2857V7.71429Z" fill="white"/>
<path d="M0 14.1429C0 13.4328 0.575634 12.8571 1.28571 12.8571H3.85714C4.56722 12.8571 5.14286 13.4328 5.14286 14.1429V16.7143C5.14286 17.4244 4.56722 18 3.85714 18H1.28571C0.575634 18 0 17.4244 0 16.7143V14.1429Z" fill="white"/>
<path d="M6.42857 1.28571C6.42857 0.575634 7.00421 0 7.71429 0H16.7143C17.4244 0 18 0.575634 18 1.28571V3.85714C18 4.56722 17.4244 5.14286 16.7143 5.14286H7.71429C7.00421 5.14286 6.42857 4.56722 6.42857 3.85714V1.28571Z" fill="white"/>
<path d="M12.8571 1.28571C12.8571 0.575634 13.4328 0 14.1429 0H16.7143C17.4244 0 18 0.575634 18 1.28571V3.85714C18 4.56722 17.4244 5.14286 16.7143 5.14286H14.1429C13.4328 5.14286 12.8571 4.56722 12.8571 3.85714V1.28571Z" fill="white"/>
<path d="M6.42857 7.71429C6.42857 7.00421 7.00421 6.42857 7.71429 6.42857H16.7143C17.4244 6.42857 18 7.00421 18 7.71429V10.2857C18 10.9958 17.4244 11.5714 16.7143 11.5714H7.71429C7.00421 11.5714 6.42857 10.9958 6.42857 10.2857V7.71429Z" fill="white"/>
<path d="M12.8571 7.71429C12.8571 7.00421 13.4328 6.42857 14.1429 6.42857H16.7143C17.4244 6.42857 18 7.00421 18 7.71429V10.2857C18 10.9958 17.4244 11.5714 16.7143 11.5714H14.1429C13.4328 11.5714 12.8571 10.9958 12.8571 10.2857V7.71429Z" fill="white"/>
<path d="M6.42857 14.1429C6.42857 13.4328 7.00421 12.8571 7.71429 12.8571H16.7143C17.4244 12.8571 18 13.4328 18 14.1429V16.7143C18 17.4244 17.4244 18 16.7143 18H7.71429C7.00421 18 6.42857 17.4244 6.42857 16.7143V14.1429Z" fill="white"/>
<path d="M12.8571 14.1429C12.8571 13.4328 13.4328 12.8571 14.1429 12.8571H16.7143C17.4244 12.8571 18 13.4328 18 14.1429V16.7143C18 17.4244 17.4244 18 16.7143 18H14.1429C13.4328 18 12.8571 17.4244 12.8571 16.7143V14.1429Z" fill="white"/>
</svg>
