<svg width="20" height="18" viewBox="0 0 20 18" fill="none" xmlns="http://www.w3.org/2000/svg">
<path d="M9.09894 7.03243L7.80488 13.8462H10.7672L12.1392 6.67381L9.09894 7.03243Z" fill="white"/>
<path d="M9.75181 4.05092C9.43999 4.29 9.28408 4.68687 9.28408 5.24153C9.28408 5.51886 9.39322 5.71491 9.61149 5.82967C9.82977 5.93486 10.2559 5.98746 10.89 5.98746C11.5344 5.98746 11.9917 5.87748 12.262 5.65753C12.5426 5.42801 12.6829 5.03114 12.6829 4.46692C12.6829 4.18959 12.5738 3.99355 12.3555 3.87879C12.1476 3.75447 11.7423 3.69231 11.1394 3.69231C10.5366 3.69231 10.074 3.81185 9.75181 4.05092Z" fill="white"/>
<path fill-rule="evenodd" clip-rule="evenodd" d="M1.01513 4.422C1.32368 1.9012 3.56943 0 6.23853 0H14.7407C17.8858 0 20.3276 2.60758 19.9641 5.578L18.9849 13.578C18.6763 16.0988 16.4306 18 13.7615 18H5.25933C2.11417 18 -0.327644 15.3924 0.0359336 12.422L1.01513 4.422ZM6.23853 2C4.63707 2 3.28962 3.14072 3.10449 4.6532L2.12529 12.6532C1.90715 14.4355 3.37224 16 5.25933 16H13.7615C15.3629 16 16.7104 14.8593 16.8955 13.3468L17.8747 5.3468C18.0929 3.56455 16.6278 2 14.7407 2H6.23853Z" fill="white"/>
</svg>
